<svg width="32" height="32" viewBox="0 0 32 32" fill="none" xmlns="http://www.w3.org/2000/svg">
<path d="M16.0001 23.0001C19.8661 23.0001 23.0001 19.8661 23.0001 16.0001C23.0001 12.1341 19.8661 9.00006 16.0001 9.00006C12.1341 9.00006 9.00012 12.1341 9.00012 16.0001C9.00012 19.8661 12.1341 23.0001 16.0001 23.0001Z" stroke="#414141" stroke-width="2" stroke-linecap="round" stroke-linejoin="round"/>
<path d="M27.0002 15.0001L28.2885 13.0676C28.3725 12.9431 28.428 12.8016 28.4512 12.6533C28.4743 12.5049 28.4645 12.3532 28.4224 12.2091C28.1793 11.4087 27.859 10.6339 27.4659 9.89556C27.3939 9.76413 27.2938 9.65021 27.1726 9.56195C27.0515 9.47368 26.9124 9.41325 26.7652 9.38496L24.4855 8.92897L23.0713 7.51478L22.6153 5.23495C22.587 5.08777 22.5266 4.94865 22.4383 4.82752C22.3501 4.7064 22.2361 4.60626 22.1047 4.53425C21.3663 4.14122 20.5915 3.82092 19.7911 3.57789C19.6469 3.53582 19.4953 3.526 19.3469 3.54914C19.1985 3.57227 19.0571 3.62778 18.9326 3.71173L17.0002 5.00001H15.0002L13.0677 3.71173C12.9432 3.62778 12.8018 3.57227 12.6534 3.54914C12.505 3.526 12.3534 3.53582 12.2092 3.57789C11.4089 3.82092 10.634 4.14121 9.89563 4.53424C9.76418 4.60625 9.65025 4.70639 9.56198 4.82753C9.47371 4.94866 9.41327 5.08779 9.38498 5.23498L8.92911 7.51466L7.5148 8.92897L5.23509 9.38484C5.08791 9.41313 4.94879 9.47356 4.82766 9.56183C4.70654 9.65009 4.60639 9.76401 4.53438 9.89546C4.14129 10.6338 3.82095 11.4087 3.57788 12.2091C3.53582 12.3533 3.526 12.5049 3.54914 12.6533C3.57227 12.8016 3.62779 12.9431 3.71175 13.0676L5.00003 15V17L3.71174 18.9324C3.62779 19.0569 3.57228 19.1984 3.54915 19.3468C3.52602 19.4951 3.53583 19.6468 3.5779 19.7909C3.8209 20.5913 4.14119 21.3662 4.53424 22.1046C4.60626 22.236 4.7064 22.3499 4.82752 22.4382C4.94865 22.5265 5.08777 22.5869 5.23494 22.6152L7.5148 23.0712L8.92898 24.4854L9.38487 26.7652C9.41315 26.9124 9.47358 27.0515 9.56185 27.1726C9.65011 27.2938 9.76403 27.3939 9.89547 27.4659C10.6338 27.859 11.4086 28.1793 12.209 28.4223C12.3532 28.4644 12.5048 28.4742 12.6532 28.451C12.8015 28.4279 12.943 28.3724 13.0675 28.2884L15 27.0001H17L18.9326 28.2885C19.0571 28.3725 19.1985 28.428 19.3469 28.4511C19.4953 28.4743 19.6469 28.4644 19.7911 28.4224C20.5914 28.1794 21.3662 27.8591 22.1046 27.466C22.236 27.394 22.3499 27.2939 22.4382 27.1728C22.5265 27.0516 22.5869 26.9125 22.6152 26.7653L23.0712 24.4855L24.4854 23.0712L26.7652 22.6153C26.9124 22.587 27.0515 22.5266 27.1726 22.4383C27.2938 22.35 27.3939 22.2361 27.4659 22.1047C27.859 21.3664 28.1793 20.5915 28.4224 19.7912C28.4645 19.647 28.4743 19.4954 28.4511 19.347C28.428 19.1986 28.3725 19.0572 28.2885 18.9327L27.0002 17.0001V15.0001Z" stroke="#414141" stroke-width="2" stroke-linecap="round" stroke-linejoin="round"/>
</svg>
