<svg width="101" height="65" viewBox="0 0 101 65" fill="none" xmlns="http://www.w3.org/2000/svg">
<mask id="path-1-inside-1_1246_5834" fill="white">
<rect y="9.4678" width="26.2186" height="45.8825" rx="2.91318"/>
</mask>
<rect y="9.4678" width="26.2186" height="45.8825" rx="2.91318" stroke="white" stroke-width="7.28294" mask="url(#path-1-inside-1_1246_5834)"/>
<path d="M15.2941 60.6689V4.14928C15.2941 3.13984 16.296 2.43643 17.2455 2.77928L37.6377 10.1431C38.2149 10.3516 38.5996 10.8994 38.5996 11.5131V53.305C38.5996 53.9187 38.2149 54.4666 37.6377 54.675L17.2455 62.0389C16.296 62.3818 15.2941 61.6783 15.2941 60.6689Z" fill="white" stroke="white" stroke-width="2.91318"/>
<path d="M57.8161 29.112C56.7708 29.112 55.8108 28.8667 54.9361 28.376C54.0614 27.8853 53.3681 27.208 52.8561 26.344C52.3441 25.4693 52.0881 24.4827 52.0881 23.384C52.0881 22.296 52.3441 21.32 52.8561 20.456C53.3681 19.5813 54.0614 18.8987 54.9361 18.408C55.8108 17.9173 56.7708 17.672 57.8161 17.672C58.8721 17.672 59.8321 17.9173 60.6961 18.408C61.5708 18.8987 62.2588 19.5813 62.7601 20.456C63.2721 21.32 63.5281 22.296 63.5281 23.384C63.5281 24.4827 63.2721 25.4693 62.7601 26.344C62.2588 27.208 61.5708 27.8853 60.6961 28.376C59.8214 28.8667 58.8614 29.112 57.8161 29.112ZM57.8161 27.112C58.4881 27.112 59.0801 26.9627 59.5921 26.664C60.1041 26.3547 60.5041 25.9173 60.7921 25.352C61.0801 24.7867 61.2241 24.1307 61.2241 23.384C61.2241 22.6373 61.0801 21.9867 60.7921 21.432C60.5041 20.8667 60.1041 20.4347 59.5921 20.136C59.0801 19.8373 58.4881 19.688 57.8161 19.688C57.1441 19.688 56.5468 19.8373 56.0241 20.136C55.5121 20.4347 55.1121 20.8667 54.8241 21.432C54.5361 21.9867 54.3921 22.6373 54.3921 23.384C54.3921 24.1307 54.5361 24.7867 54.8241 25.352C55.1121 25.9173 55.5121 26.3547 56.0241 26.664C56.5468 26.9627 57.1441 27.112 57.8161 27.112ZM69.0234 21.416C69.3114 21.0107 69.7061 20.6747 70.2074 20.408C70.7194 20.1307 71.3007 19.992 71.9514 19.992C72.7087 19.992 73.3914 20.1787 73.9994 20.552C74.6181 20.9253 75.1034 21.4587 75.4554 22.152C75.8181 22.8347 75.9994 23.6293 75.9994 24.536C75.9994 25.4427 75.8181 26.248 75.4554 26.952C75.1034 27.6453 74.6181 28.184 73.9994 28.568C73.3914 28.952 72.7087 29.144 71.9514 29.144C71.3007 29.144 70.7247 29.0107 70.2234 28.744C69.7327 28.4773 69.3327 28.1413 69.0234 27.736V33.224H66.7834V20.136H69.0234V21.416ZM73.7114 24.536C73.7114 24.0027 73.5994 23.544 73.3754 23.16C73.1621 22.7653 72.8741 22.4667 72.5114 22.264C72.1594 22.0613 71.7754 21.96 71.3594 21.96C70.9541 21.96 70.5701 22.0667 70.2074 22.28C69.8554 22.4827 69.5674 22.7813 69.3434 23.176C69.1301 23.5707 69.0234 24.0347 69.0234 24.568C69.0234 25.1013 69.1301 25.5653 69.3434 25.96C69.5674 26.3547 69.8554 26.6587 70.2074 26.872C70.5701 27.0747 70.9541 27.176 71.3594 27.176C71.7754 27.176 72.1594 27.0693 72.5114 26.856C72.8741 26.6427 73.1621 26.3387 73.3754 25.944C73.5994 25.5493 73.7114 25.08 73.7114 24.536ZM87.4559 24.376C87.4559 24.696 87.4346 24.984 87.3919 25.24H80.9119C80.9653 25.88 81.1893 26.3813 81.5839 26.744C81.9786 27.1067 82.4639 27.288 83.0399 27.288C83.8719 27.288 84.4639 26.9307 84.8159 26.216H87.2319C86.9759 27.0693 86.4853 27.7733 85.7599 28.328C85.0346 28.872 84.1439 29.144 83.0879 29.144C82.2346 29.144 81.4666 28.9573 80.7839 28.584C80.1119 28.2 79.5839 27.6613 79.1999 26.968C78.8266 26.2747 78.6399 25.4747 78.6399 24.568C78.6399 23.6507 78.8266 22.8453 79.1999 22.152C79.5733 21.4587 80.0959 20.9253 80.7679 20.552C81.4399 20.1787 82.2133 19.992 83.0879 19.992C83.9306 19.992 84.6826 20.1733 85.3439 20.536C86.0159 20.8987 86.5333 21.416 86.8959 22.088C87.2693 22.7493 87.4559 23.512 87.4559 24.376ZM85.1359 23.736C85.1253 23.16 84.9173 22.7013 84.5119 22.36C84.1066 22.008 83.6106 21.832 83.0239 21.832C82.4693 21.832 81.9999 22.0027 81.6159 22.344C81.2426 22.6747 81.0133 23.1387 80.9279 23.736H85.1359ZM95.5917 20.008C96.6477 20.008 97.501 20.344 98.1517 21.016C98.8024 21.6773 99.1277 22.6053 99.1277 23.8V29H96.8877V24.104C96.8877 23.4 96.7117 22.8613 96.3597 22.488C96.0077 22.104 95.5277 21.912 94.9197 21.912C94.301 21.912 93.8104 22.104 93.4477 22.488C93.0957 22.8613 92.9197 23.4 92.9197 24.104V29H90.6797V20.136H92.9197V21.24C93.2184 20.856 93.597 20.5573 94.0557 20.344C94.525 20.12 95.037 20.008 95.5917 20.008ZM54.8721 39.512C55.1601 39.0427 55.5334 38.6747 55.9921 38.408C56.4614 38.1413 56.9948 38.008 57.5921 38.008V40.36H57.0001C56.2961 40.36 55.7628 40.5253 55.4001 40.856C55.0481 41.1867 54.8721 41.7627 54.8721 42.584V47H52.6321V38.136H54.8721V39.512ZM64.6256 47.144C63.7723 47.144 63.0043 46.9573 62.3216 46.584C61.639 46.2 61.1003 45.6613 60.7056 44.968C60.3216 44.2747 60.1296 43.4747 60.1296 42.568C60.1296 41.6613 60.327 40.8613 60.7216 40.168C61.127 39.4747 61.6763 38.9413 62.3696 38.568C63.063 38.184 63.8363 37.992 64.6896 37.992C65.543 37.992 66.3163 38.184 67.0096 38.568C67.703 38.9413 68.247 39.4747 68.6416 40.168C69.047 40.8613 69.2496 41.6613 69.2496 42.568C69.2496 43.4747 69.0416 44.2747 68.6256 44.968C68.2203 45.6613 67.6656 46.2 66.9616 46.584C66.2683 46.9573 65.4896 47.144 64.6256 47.144ZM64.6256 45.192C65.031 45.192 65.4096 45.096 65.7616 44.904C66.1243 44.7013 66.4123 44.4027 66.6256 44.008C66.839 43.6133 66.9456 43.1333 66.9456 42.568C66.9456 41.7253 66.7216 41.08 66.2736 40.632C65.8363 40.1733 65.2976 39.944 64.6576 39.944C64.0176 39.944 63.479 40.1733 63.0416 40.632C62.615 41.08 62.4016 41.7253 62.4016 42.568C62.4016 43.4107 62.6096 44.0613 63.0256 44.52C63.4523 44.968 63.9856 45.192 64.6256 45.192ZM76.4176 47.144C75.5642 47.144 74.7962 46.9573 74.1136 46.584C73.4309 46.2 72.8922 45.6613 72.4976 44.968C72.1136 44.2747 71.9216 43.4747 71.9216 42.568C71.9216 41.6613 72.1189 40.8613 72.5136 40.168C72.9189 39.4747 73.4682 38.9413 74.1616 38.568C74.8549 38.184 75.6282 37.992 76.4816 37.992C77.3349 37.992 78.1082 38.184 78.8016 38.568C79.4949 38.9413 80.0389 39.4747 80.4336 40.168C80.8389 40.8613 81.0416 41.6613 81.0416 42.568C81.0416 43.4747 80.8336 44.2747 80.4176 44.968C80.0122 45.6613 79.4576 46.2 78.7536 46.584C78.0602 46.9573 77.2816 47.144 76.4176 47.144ZM76.4176 45.192C76.8229 45.192 77.2016 45.096 77.5536 44.904C77.9162 44.7013 78.2042 44.4027 78.4176 44.008C78.6309 43.6133 78.7376 43.1333 78.7376 42.568C78.7376 41.7253 78.5136 41.08 78.0656 40.632C77.6282 40.1733 77.0896 39.944 76.4496 39.944C75.8096 39.944 75.2709 40.1733 74.8336 40.632C74.4069 41.08 74.1936 41.7253 74.1936 42.568C74.1936 43.4107 74.4016 44.0613 74.8176 44.52C75.2442 44.968 75.7776 45.192 76.4176 45.192ZM95.2815 38.008C96.3695 38.008 97.2441 38.344 97.9055 39.016C98.5775 39.6773 98.9135 40.6053 98.9135 41.8V47H96.6735V42.104C96.6735 41.4107 96.4975 40.8827 96.1455 40.52C95.7935 40.1467 95.3135 39.96 94.7055 39.96C94.0975 39.96 93.6121 40.1467 93.2495 40.52C92.8975 40.8827 92.7215 41.4107 92.7215 42.104V47H90.4815V42.104C90.4815 41.4107 90.3055 40.8827 89.9535 40.52C89.6015 40.1467 89.1215 39.96 88.5135 39.96C87.8948 39.96 87.4041 40.1467 87.0415 40.52C86.6895 40.8827 86.5135 41.4107 86.5135 42.104V47H84.2735V38.136H86.5135V39.208C86.8015 38.8347 87.1695 38.5413 87.6175 38.328C88.0761 38.1147 88.5775 38.008 89.1215 38.008C89.8148 38.008 90.4335 38.1573 90.9775 38.456C91.5215 38.744 91.9428 39.16 92.2415 39.704C92.5295 39.192 92.9455 38.7813 93.4895 38.472C94.0441 38.1627 94.6415 38.008 95.2815 38.008Z" fill="white"/>
</svg>
